<svg width="42" height="40" viewBox="0 0 42 40" fill="none" xmlns="http://www.w3.org/2000/svg">
<path d="M20.5064 0C9.17661 0 2.993e-06 9.1766 2.993e-06 20.5064C-0.00232288 24.8112 1.35099 29.0075 3.86795 32.4999C6.38491 35.9923 9.93769 38.6034 14.0223 39.9628C15.0476 40.1412 15.4311 39.526 15.4311 38.9867C15.4311 38.5007 15.4044 36.8869 15.4044 35.1684C10.2532 36.1179 8.92028 33.9134 8.51015 32.7589C8.27843 32.1684 7.27977 30.3494 6.40825 29.8614C5.69052 29.4779 4.6652 28.5285 6.38159 28.5039C7.99749 28.4772 9.14995 29.9906 9.53547 30.6058C11.381 33.7063 14.3299 32.8348 15.5069 32.2975C15.6874 30.9646 16.2246 30.0685 16.8152 29.5558C12.2526 29.0432 7.48483 27.2735 7.48483 19.4298C7.48483 17.1987 8.27843 15.3552 9.58673 13.9177C9.38167 13.405 8.66395 11.3031 9.7918 8.48349C9.7918 8.48349 11.5082 7.94622 15.4311 10.5874C17.1004 10.1241 18.8252 9.89093 20.5576 9.89433C22.3007 9.89433 24.0437 10.124 25.6842 10.5854C29.6051 7.91956 31.3235 8.48554 31.3235 8.48554C32.4513 11.3052 31.7336 13.4071 31.5286 13.9197C32.8348 15.3552 33.6305 17.1741 33.6305 19.4298C33.6305 27.3001 28.8381 29.0432 24.2755 29.5558C25.0178 30.1956 25.6596 31.426 25.6596 33.3495C25.6596 36.0912 25.633 38.2957 25.633 38.9888C25.633 39.526 26.0185 40.1658 27.0438 39.9608C31.1144 38.5864 34.6515 35.9702 37.1574 32.4804C39.6632 28.9905 41.0116 24.8027 41.0128 20.5064C41.0128 9.1766 31.8362 0 20.5064 0Z" fill="white"/>
</svg>
