<svg width="23" height="32" viewBox="0 0 23 32" fill="none" xmlns="http://www.w3.org/2000/svg">
<path d="M15.5449 26.5V27C15.5449 29.4849 13.5265 31.4998 11.0312 31.5C8.53583 31.5 6.5166 29.485 6.5166 27V26.5H15.5449ZM11.0312 0.5C16.8479 0.500225 21.5613 5.2022 21.5615 11.0059C21.5615 13.0921 20.9518 15.0307 19.8994 16.666L19.6836 16.9893C19.3744 17.4332 19.0521 17.8718 18.7256 18.3164L18.7246 18.3184C17.5715 19.9001 16.3488 21.5608 15.6836 23.4941H6.38086C5.72118 21.5628 4.49761 19.8947 3.33691 18.3105H3.33594C3.00941 17.866 2.68709 17.4273 2.37793 16.9834V16.9824L2.16113 16.6602C1.1095 15.03 0.5 13.0865 0.5 11C0.5 5.20246 5.21404 0.5 11.0312 0.5ZM11.0312 3.5C6.87683 3.5 3.51074 6.85379 3.51074 11C3.51074 11.8273 4.18746 12.4998 5.01367 12.5C5.84004 12.5 6.5166 11.8275 6.5166 11C6.5166 8.51496 8.53583 6.5 11.0312 6.5C11.8574 6.49977 12.5332 5.82732 12.5332 5C12.5332 4.17268 11.8574 3.50023 11.0312 3.5Z" stroke="#70E61C"/>
</svg>
