<svg width="38" height="48" viewBox="0 0 38 48" fill="none" xmlns="http://www.w3.org/2000/svg">
<g clip-path="url(#clip0_105102_3134)">
<path d="M19 1C28.93 1 37 9.07 37 19C37 30.06 22.29 43.75 19 46.67C15.71 43.75 1 30.06 1 19C1 9.07 9.07 1 19 1ZM19 0C8.51 0 0 8.51 0 19C0 32 19 48 19 48C19 48 38 32 38 19C38 8.51 29.49 0 19 0Z" fill="#70E61C"/>
<path d="M19 11.58C22.27 11.58 24.92 14.24 24.92 17.5C24.92 20.76 22.26 23.42 19 23.42C15.74 23.42 13.08 20.76 13.08 17.5C13.08 14.24 15.74 11.58 19 11.58ZM19 10.5C15.13 10.5 12 13.63 12 17.5C12 21.37 15.13 24.5 19 24.5C22.87 24.5 26 21.37 26 17.5C26 13.63 22.87 10.5 19 10.5Z" fill="#70E61C"/>
</g>
<defs>
<clipPath id="clip0_105102_3134">
<rect width="38" height="48" fill="white"/>
</clipPath>
</defs>
</svg>
