<svg width="30" height="30" viewBox="0 0 30 30" fill="none" xmlns="http://www.w3.org/2000/svg">
<path d="M12.3952 1.1976C14.1317 1.25748 15.509 2.69461 15.509 4.43114V5.32934V6.52695H16.7066H20.9581H21.018C21.3174 6.52695 21.6168 6.58683 21.9162 6.70659C22.1557 6.82635 22.3952 6.94611 22.6347 7.12575L22.7545 7.24551C22.994 7.48503 23.1736 7.72455 23.2934 8.02395C23.4132 8.32335 23.473 8.62275 23.473 8.98203V13.2335V14.4311H24.6707H25.5689C27.3653 14.4311 28.8024 15.8084 28.8024 17.5449C28.8024 19.3413 27.3653 20.7784 25.6287 20.7784H24.6707H23.473V21.976V26.2275C23.473 27.6048 22.3952 28.7425 21.018 28.7425H16.2275V26.8862C16.2275 26.4671 16.1677 25.988 15.988 25.5689C15.8084 25.1497 15.5689 24.7904 15.2695 24.491C14.5509 23.7725 13.5329 23.3533 12.4551 23.3533H12.3952C11.5569 23.3533 10.7784 23.5928 10.1198 24.0719H10.0599L9.7006 24.3713C8.92215 25.0299 8.56287 25.9281 8.56287 26.8862V28.6826H3.83233C3.23353 28.6826 2.63473 28.4431 2.15569 28.024L2.03593 27.9042C1.55689 27.4251 1.31736 26.7665 1.31736 26.1078V21.3772H3.17365C4.07186 21.3772 4.97006 21.018 5.68862 20.2994C6.0479 19.9401 6.3473 19.4611 6.52694 18.982C6.70658 18.503 6.82635 17.9641 6.82635 17.4252C6.76647 15.3892 5.08982 13.6527 3.11377 13.6527H1.1976V8.86228C1.1976 8.50299 1.25748 8.2036 1.37725 7.90419C1.49701 7.60479 1.67665 7.36527 1.91617 7.12575C2.39521 6.64671 2.99401 6.40719 3.71257 6.40719H7.96407H9.16167V5.20958V4.37126C9.16167 3.9521 9.22156 3.53294 9.4012 3.11377L9.46108 3.0539C9.64072 2.69461 9.88024 2.39521 10.1198 2.09581C10.4192 1.79641 10.7784 1.55689 11.1377 1.43713C11.497 1.25749 11.9162 1.1976 12.3952 1.1976ZM12.3353 0C11.7964 0 11.1976 0.11976 10.6587 0.299401C10.1198 0.538922 9.64072 0.838327 9.22155 1.25749C8.80239 1.67665 8.50299 2.15569 8.26347 2.69461C8.02395 3.23353 7.90419 3.83234 7.90419 4.37126V5.32934H3.65269C2.69461 5.32934 1.73653 5.68863 1.07784 6.34731C0.718563 6.70659 0.479042 7.06587 0.239521 7.54491C0.119761 8.02395 0 8.50299 0 8.98203V14.9701H2.99401C4.37126 14.9701 5.50898 16.1677 5.56886 17.6048C5.56886 17.9641 5.50898 18.3234 5.32934 18.6826C5.20958 19.0419 4.97006 19.3413 4.73054 19.5808C4.2515 20.0599 3.65269 20.2994 3.05389 20.2994H0V26.2275C0 27.1856 0.419162 28.1437 1.07784 28.8623C1.79641 29.5808 2.69461 29.9401 3.71257 29.9401H9.64072V26.9461C9.64072 26.1677 10.0599 25.6287 10.4192 25.3293C10.9581 24.8503 11.6168 24.6108 12.3353 24.6108C12.3353 24.6108 12.3353 24.6108 12.3952 24.6108C13.1736 24.6108 13.8922 24.9102 14.3713 25.3892C14.5509 25.5689 14.7305 25.8084 14.8503 26.1078C14.9701 26.3473 15.0299 26.6467 15.0299 26.9461V30H21.018C23.0539 30 24.6707 28.3234 24.6707 26.2874V22.0359H25.6287C28.0239 22.0359 30 20.0599 30 17.6048C30 15.2096 28.0239 13.2934 25.5689 13.2934H24.6707V9.04192C24.6707 8.56288 24.6108 8.08383 24.3713 7.60479C24.1916 7.12575 23.8922 6.76647 23.5928 6.40719C23.2335 6.04791 22.8742 5.80838 22.3952 5.62874C21.976 5.4491 21.497 5.38922 21.018 5.38922C21.018 5.38922 21.018 5.38922 20.9581 5.38922H16.7066V4.49102C16.7066 2.03593 14.7904 0.0598802 12.3353 0C12.3952 0 12.3952 0 12.3353 0Z" fill="#70E61C"/>
</svg>
