<svg width="46" height="46" viewBox="0 0 46 46" fill="none" xmlns="http://www.w3.org/2000/svg">
<path d="M19.0769 1.53333C21.9231 1.61 24.2308 3.98667 24.2308 6.82333V8.20333V9.73667H25.7692H32.3077C33.3846 9.73667 34.4615 10.1967 35.2308 10.9633C36 11.73 36.4615 12.7267 36.3846 13.8V20.3167V21.85H37.9231H39.3077C42.2308 21.85 44.6154 24.15 44.6154 26.9867C44.6154 29.9 42.3077 32.2767 39.3846 32.2767H37.9231H36.3846V33.81V40.3267C36.3846 42.6267 34.5385 44.4667 32.3077 44.4667H24.6154V41.3233C24.6154 40.71 24.4615 40.02 24.2308 39.4833C24 38.87 23.6154 38.41 23.1538 37.95C22.0769 36.8767 20.5385 36.34 19 36.34H18.9231C17.5385 36.34 16.1538 36.8767 15 37.7967C13.9231 38.7933 13.3077 40.02 13.3077 41.4767V44.5433H5.76923C4.69231 44.5433 3.61538 44.0833 2.76923 43.3167C2 42.55 1.53846 41.4767 1.53846 40.4033V32.89H4.69231C6.07692 32.89 7.38462 32.3533 8.38461 31.28C8.92308 30.7433 9.38462 30.0533 9.69231 29.3633C10 28.6733 10.1538 27.9067 10.1538 27.14C10.0769 23.9967 7.53846 21.4667 4.61538 21.4667H1.53846V13.8C1.53846 12.7267 2 11.6533 2.76923 10.8867C3.53846 10.12 4.61538 9.73667 5.76923 9.73667H12.3077H13.8462V8.20333V6.74667C13.8462 6.05667 14 5.36667 14.2308 4.75333C14.5385 4.14 14.9231 3.52667 15.3846 3.06667C15.8462 2.60667 16.4615 2.22333 17.0769 1.91667C17.6923 1.68667 18.3846 1.53333 19.0769 1.53333ZM19.0769 0C18.2308 0 17.3077 0.153333 16.5385 0.46C15.6923 0.766667 14.9231 1.30333 14.3077 1.91667C13.6923 2.53 13.1538 3.29667 12.8462 4.14C12.5385 4.98333 12.3077 5.82667 12.3077 6.74667V8.20333H5.76923C4.30769 8.20333 2.84615 8.74 1.76923 9.81333C0.615385 10.8867 0 12.3433 0 13.8V23H4.61538C6.69231 23 8.53846 24.84 8.53846 26.9867C8.53846 27.6 8.46154 28.1367 8.23077 28.6733C8 29.21 7.69231 29.67 7.30769 30.0533C6.61538 30.7433 5.69231 31.2033 4.69231 31.2033H0V40.25C0 41.7833 0.615385 43.24 1.69231 44.3133C2.76923 45.3867 4.23077 46 5.76923 46H14.8462V41.4C14.8462 40.1733 15.4615 39.33 16 38.87C16.8462 38.18 17.8462 37.7967 18.9231 37.7967H19C20.1538 37.7967 21.3077 38.2567 22.0769 39.0233C22.3846 39.33 22.6154 39.7133 22.7692 40.0967C22.9231 40.48 23 40.94 23 41.3233V46H32.1538C35.2308 46 37.7692 43.47 37.7692 40.3267V33.81H39.2308C42.9231 33.81 46 30.7433 46 26.9867C46 23.3067 42.9231 20.3167 39.1538 20.3167H37.7692V13.8C37.7692 10.7333 35.1538 8.20333 32.1538 8.20333H25.6154V6.82333C25.7692 3.14333 22.7692 0.0766667 19.0769 0Z" fill="#70E61C"/>
</svg>
