<svg width="40" height="40" viewBox="0 0 40 40" fill="none" xmlns="http://www.w3.org/2000/svg">
<rect x="1" y="1" width="38" height="38" rx="19" stroke="#70E61C" stroke-width="2"/>
<mask id="mask0_105102_3613" style="mask-type:alpha" maskUnits="userSpaceOnUse" x="4" y="4" width="32" height="32">
<rect x="4" y="4" width="32" height="32" fill="#D9D9D9"/>
</mask>
<g mask="url(#mask0_105102_3613)">
<path d="M14.4334 21.3334L20.9667 27.8667C21.2334 28.1334 21.3611 28.4445 21.35 28.8C21.3389 29.1556 21.2 29.4667 20.9334 29.7334C20.6667 29.9778 20.3556 30.1056 20 30.1167C19.6445 30.1278 19.3334 30 19.0667 29.7334L10.2667 20.9334C10.1334 20.8 10.0389 20.6556 9.98336 20.5C9.9278 20.3445 9.90002 20.1778 9.90002 20C9.90002 19.8222 9.9278 19.6556 9.98336 19.5C10.0389 19.3445 10.1334 19.2 10.2667 19.0667L19.0667 10.2667C19.3111 10.0222 19.6167 9.90002 19.9834 9.90002C20.35 9.90002 20.6667 10.0222 20.9334 10.2667C21.2 10.5334 21.3334 10.85 21.3334 11.2167C21.3334 11.5834 21.2 11.9 20.9334 12.1667L14.4334 18.6667H29.3334C29.7111 18.6667 30.0278 18.7945 30.2834 19.05C30.5389 19.3056 30.6667 19.6222 30.6667 20C30.6667 20.3778 30.5389 20.6945 30.2834 20.95C30.0278 21.2056 29.7111 21.3334 29.3334 21.3334H14.4334Z" fill="#70E61C"/>
</g>
</svg>
