<svg width="40" height="40" viewBox="0 0 40 40" fill="none" xmlns="http://www.w3.org/2000/svg">
<rect x="1" y="1" width="38" height="38" rx="19" stroke="#70E61C" stroke-width="2"/>
<mask id="mask0_105102_3621" style="mask-type:alpha" maskUnits="userSpaceOnUse" x="4" y="4" width="32" height="32">
<rect x="4" y="4" width="32" height="32" fill="#D9D9D9"/>
</mask>
<g mask="url(#mask0_105102_3621)">
<path d="M25.5667 21.3334H10.6667C10.2889 21.3334 9.97226 21.2056 9.71671 20.95C9.46115 20.6945 9.33337 20.3778 9.33337 20C9.33337 19.6222 9.46115 19.3056 9.71671 19.05C9.97226 18.7945 10.2889 18.6667 10.6667 18.6667H25.5667L19.0334 12.1334C18.7667 11.8667 18.6389 11.5556 18.65 11.2C18.6612 10.8445 18.8 10.5334 19.0667 10.2667C19.3334 10.0222 19.6445 9.89447 20 9.88336C20.3556 9.87225 20.6667 10 20.9334 10.2667L29.7334 19.0667C29.8667 19.2 29.9612 19.3445 30.0167 19.5C30.0723 19.6556 30.1 19.8222 30.1 20C30.1 20.1778 30.0723 20.3445 30.0167 20.5C29.9612 20.6556 29.8667 20.8 29.7334 20.9334L20.9334 29.7334C20.6889 29.9778 20.3834 30.1 20.0167 30.1C19.65 30.1 19.3334 29.9778 19.0667 29.7334C18.8 29.4667 18.6667 29.15 18.6667 28.7834C18.6667 28.4167 18.8 28.1 19.0667 27.8334L25.5667 21.3334Z" fill="#70E61C"/>
</g>
</svg>
