<svg width="60" height="61" viewBox="0 0 60 61" fill="none" xmlns="http://www.w3.org/2000/svg">
<path d="M59.9454 4.77924C59.5084 2.48521 57.7333 0.628129 55.4665 0.13655C55.3573 0.10924 55.2481 0.10924 55.1115 0.0819299C55.0842 0.0819299 55.0569 0.02731 55.0296 0H4.9431C4.91579 0.02731 4.88848 0.0819299 4.83386 0.0819299C2.56714 0.464269 0.655439 2.26673 0.13655 4.56077C0.10924 4.64269 0.0546199 4.75193 0 4.86117V55.0842C0.02731 55.1388 0.0819299 55.1661 0.0819299 55.2208C0.628129 57.7333 2.15749 59.2899 4.64269 59.9181C4.72462 59.9454 4.77924 60 4.83386 60.0546H55.1115C55.1661 60.0273 55.1934 59.9727 55.2481 59.9454C57.7333 59.3719 59.2626 57.8698 59.8908 55.3846C59.9181 55.3027 59.8908 55.1934 59.9181 55.1115C59.9181 55.0842 59.9727 55.0569 60 55.0296V4.9431C60 4.88848 59.9454 4.86117 59.9454 4.77924ZM34.8202 33.2909H34.5198C32.2531 33.2909 29.959 33.2909 27.6923 33.2909C27.5831 33.2909 27.4738 33.2909 27.3646 33.2909C27.3646 33.3182 27.3373 33.3182 27.3373 33.3455C27.3373 33.4547 27.3373 33.564 27.3373 33.6732V54.7292H21.3564V33.3182H13.8462V28.5389H34.7929V33.2909H34.8202ZM54.975 47.574C54.9203 48.5025 54.7838 49.4037 54.4015 50.2777C54.2922 50.5508 54.2103 50.7965 54.0737 51.0696C53.5822 52.1074 52.7629 52.8448 51.807 53.4456C50.7146 54.1284 49.513 54.5107 48.2567 54.7565C46.8639 55.0296 45.4711 55.1115 44.051 55.0569C43.3682 55.0296 42.6855 55.0296 42.0027 54.9477C40.3914 54.7565 38.8075 54.4015 37.3327 53.6914C37.2508 53.6641 37.1416 53.5275 37.1416 53.4456C37.1416 51.6705 37.1416 49.8953 37.1416 48.1202C37.1416 48.0929 37.1416 48.0655 37.1416 48.0109C37.5785 48.3113 38.0155 48.6117 38.4524 48.8575C39.5175 49.4857 40.6919 49.9226 41.8935 50.1957C42.9313 50.4415 43.9691 50.4688 45.0068 50.4142C45.7988 50.3869 46.5908 50.1957 47.3009 49.8407C47.929 49.513 48.4479 49.076 48.5844 48.3386C48.721 47.6832 48.6664 47.0278 48.284 46.4543C47.7378 45.635 46.9731 45.1161 46.1265 44.6791C45.1707 44.2148 44.2148 43.8052 43.2317 43.3682C41.7843 42.7128 40.3641 42.0027 39.1898 40.9103C38.234 40.0091 37.5239 38.944 37.1962 37.6604C37.005 36.8958 36.9504 36.1311 36.9777 35.3664C37.005 33.482 37.6878 31.8707 39.0259 30.5325C40.1183 29.4401 41.4565 28.7847 42.9313 28.4024C43.9417 28.1566 44.9522 27.9654 45.99 27.9381C46.7274 27.9381 47.4647 27.8562 48.1748 27.8835C49.2945 27.9108 50.3869 27.9654 51.4793 28.2385C52.1894 28.4297 52.9267 28.6208 53.6368 28.7847C53.7733 28.812 53.8279 28.8939 53.8279 29.0578C53.8279 30.751 53.8279 32.4716 53.8279 34.1648C53.8279 34.2194 53.8279 34.274 53.8006 34.3559C53.5822 34.2194 53.391 34.1102 53.1998 34.0009C52.3259 33.5093 51.3974 33.1816 50.4415 32.9358C49.3764 32.69 48.3113 32.5262 47.2189 32.5535C46.4816 32.5808 45.7169 32.69 45.0341 32.9358C44.1875 33.2362 43.5048 33.7278 43.2044 34.629C42.9586 35.3391 43.1498 35.9399 43.5867 36.5134C44.1329 37.2235 44.8703 37.7151 45.6623 38.0974C46.7274 38.6163 47.8198 39.0533 48.8575 39.5448C50.0592 40.1183 51.2608 40.6919 52.2713 41.5385C53.1452 42.2758 53.9372 43.0951 54.3741 44.1875C54.6199 44.843 54.8384 45.5257 54.8384 46.2631C54.9477 46.7 55.0023 47.137 54.975 47.574Z" fill="white"/>
</svg>
